<?xml version="1.0" standalone="no"?>
<!DOCTYPE svg PUBLIC "-//W3C//DTD SVG 20010904//EN"
 "http://www.w3.org/TR/2001/REC-SVG-20010904/DTD/svg10.dtd">
<svg version="1.0" xmlns="http://www.w3.org/2000/svg"
 width="800.000000pt" height="600.000000pt" viewBox="0 0 800.000000 600.000000"
 preserveAspectRatio="xMidYMid meet">

<g transform="translate(0.000000,600.000000) scale(0.100000,-0.100000)"
fill="#000000" stroke="none">
<path d="M3550 5859 c-987 -70 -1898 -405 -2640 -970 -167 -127 -277 -222
-434 -377 -178 -176 -273 -284 -297 -336 -50 -110 7 -252 123 -310 113 -56
172 -32 321 133 390 433 920 806 1484 1045 417 177 825 283 1313 343 208 25
803 26 1010 0 891 -109 1632 -414 2290 -942 157 -126 409 -371 552 -538 133
-154 154 -170 227 -174 48 -3 64 0 108 26 88 52 140 150 130 246 -7 69 -20 92
-115 205 -880 1052 -2279 1669 -3757 1659 -110 -1 -252 -6 -315 -10z"/>
<path d="M3590 4904 c-952 -85 -1763 -432 -2397 -1026 -190 -178 -431 -451
-475 -537 -84 -165 143 -341 334 -259 41 17 66 41 146 137 182 219 347 377
569 543 826 618 1979 837 3041 578 531 -130 1037 -385 1427 -720 141 -121 351
-343 454 -480 104 -139 118 -153 176 -180 166 -80 388 86 332 248 -32 92 -234
342 -456 562 -613 609 -1399 985 -2321 1111 -124 16 -218 21 -470 24 -173 1
-335 1 -360 -1z"/>
<path d="M3635 3949 c-722 -67 -1388 -367 -1891 -851 -170 -164 -386 -433
-444 -554 -75 -154 56 -325 239 -312 71 5 128 39 169 99 154 231 364 463 542
601 318 245 693 417 1088 498 198 40 340 53 567 54 233 0 340 -10 549 -50 729
-141 1344 -561 1696 -1159 64 -108 83 -131 132 -156 45 -23 134 -25 182 -5 49
20 116 85 137 131 42 91 18 165 -114 367 -499 763 -1352 1255 -2312 1338 -139
11 -409 11 -540 -1z"/>
<path d="M3795 2600 c-440 -24 -762 -141 -1040 -376 -133 -113 -242 -280 -334
-511 -80 -202 -202 -583 -204 -637 -4 -107 34 -109 188 -13 164 104 221 118
275 70 25 -23 33 -41 41 -93 38 -229 54 -273 125 -345 54 -54 115 -77 254 -99
313 -49 465 -137 656 -378 101 -127 143 -158 212 -158 68 0 116 35 220 165
187 231 349 331 632 392 255 55 308 82 356 179 25 50 28 70 31 173 5 149 7
156 43 171 42 18 79 5 220 -75 198 -112 240 -87 205 120 -85 506 -328 954
-625 1152 -323 216 -694 294 -1255 263z m-510 -499 c63 -28 139 -102 166 -164
35 -78 32 -187 -8 -288 -64 -164 -204 -325 -361 -418 -71 -42 -188 -85 -262
-96 -41 -5 -37 -3 37 29 129 54 288 153 372 232 134 126 197 266 189 417 -9
156 -92 247 -225 247 -105 0 -190 -75 -213 -185 -19 -89 -6 -142 55 -234 90
-136 91 -229 4 -331 -17 -20 -19 -21 -14 -5 50 136 44 210 -26 291 -78 91
-108 186 -88 284 41 198 206 296 374 221z m1536 13 c109 -32 191 -156 191
-289 1 -79 -30 -157 -87 -224 -74 -87 -81 -157 -30 -296 5 -16 3 -15 -14 5
-87 102 -86 195 4 331 61 92 74 145 55 234 -14 66 -59 130 -115 162 -49 28
-140 31 -188 7 -88 -44 -129 -114 -135 -231 -8 -151 55 -291 189 -417 85 -80
242 -178 369 -231 76 -32 80 -35 40 -30 -142 20 -311 108 -424 222 -191 192
-276 427 -208 578 38 83 117 153 205 181 57 17 84 17 148 -2z m-846 -445 c36
-165 47 -289 52 -586 6 -326 -4 -532 -38 -768 -21 -146 -36 -196 -25 -85 3 36
9 236 12 445 6 347 2 524 -22 965 -4 63 -4 112 -1 109 4 -3 14 -39 22 -80z"/>
</g>
</svg>
